<svg width="264" height="28" viewBox="0 0 264 28" fill="none" xmlns="http://www.w3.org/2000/svg">
<path d="M92.632 7.79201H88.552C85.928 7.79201 84.36 6.40001 84.36 4.24001C84.36 2.08001 85.928 0.68801 88.552 0.68801H92.632C95.256 0.68801 96.84 2.08001 96.84 4.24001C96.84 6.40001 95.256 7.79201 92.632 7.79201ZM86.424 14.736V10.88H83.48V9.04001H97.72V10.88H94.776V14.736H92.504V10.88H88.696V14.736H86.424ZM88.472 5.96801H92.728C93.896 5.96801 94.664 5.24801 94.664 4.24001C94.664 3.23201 93.896 2.51201 92.728 2.51201H88.472C87.304 2.51201 86.536 3.23201 86.536 4.24001C86.536 5.24801 87.304 5.96801 88.472 5.96801ZM100.043 14.672V8.83201H102.219V9.98401H109.707V8.83201H111.883V14.672H100.043ZM99.0031 8.03201V3.42401H104.907V2.30401H99.0031V0.60801H107.083V5.07201H101.179V6.33601H108.427V8.03201H99.0031ZM109.707 8.35201V4.78401H107.563V2.83201H109.707V0.448009H111.883V8.35201H109.707ZM102.219 12.944H109.707V11.712H102.219V12.944ZM150.855 9.39201V7.74401H156.999V6.84801H151.895V0.51201H164.135V2.16001H154.039V2.84801H164.007V4.43201H154.103V5.20001H164.375V6.84801H159.271V7.74401H165.095V9.39201H150.855ZM154.823 9.96801H161.127C163.127 9.96801 164.375 10.896 164.375 12.352C164.375 13.808 163.127 14.736 161.127 14.736H154.823C152.823 14.736 151.575 13.808 151.575 12.352C151.575 10.896 152.823 9.96801 154.823 9.96801ZM154.903 12.992H161.047C161.767 12.992 162.199 12.704 162.199 12.352C162.199 12 161.767 11.712 161.047 11.712H154.903C154.183 11.712 153.751 12 153.751 12.352C153.751 12.704 154.183 12.992 154.903 12.992ZM166.938 14.672V8.83201H169.114V9.98401H176.602V8.83201H178.778V14.672H166.938ZM171.738 8.28801H169.658C167.546 8.28801 166.298 7.24801 166.298 5.76001C166.298 4.27201 167.546 3.23201 169.658 3.23201H171.738C173.85 3.23201 175.098 4.27201 175.098 5.76001C175.098 7.24801 173.85 8.28801 171.738 8.28801ZM176.602 8.35201V0.448009H178.778V3.55201H180.698V5.50401H178.778V8.35201H176.602ZM165.978 2.73601V1.08801H169.546V9.53674e-06H171.85V1.08801H175.418V2.73601H165.978ZM169.114 12.944H176.602V11.712H169.114V12.944ZM169.818 6.59201H171.562C172.362 6.59201 172.922 6.30401 172.922 5.76001C172.922 5.21601 172.362 4.92801 171.562 4.92801H169.818C169.018 4.92801 168.474 5.21601 168.474 5.76001C168.474 6.30401 169.018 6.59201 169.818 6.59201ZM191.053 14.736H186.029C183.725 14.736 182.301 13.584 182.301 11.744C182.301 9.90401 183.725 8.75201 186.029 8.75201H191.053C193.357 8.75201 194.781 9.90401 194.781 11.744C194.781 13.584 193.357 14.736 191.053 14.736ZM181.421 8.11201V6.36801C183.437 6.04801 184.861 4.62401 184.861 2.97601V2.33601H181.501V0.60801H190.301V2.33601H187.117V2.97601C187.117 4.59201 188.381 5.82401 190.381 6.24001V7.98401C188.605 7.66401 187.005 6.83201 185.981 5.71201C184.925 6.99201 183.357 7.77601 181.421 8.11201ZM192.285 8.43201V4.99201H189.661V3.15201H192.285V0.448009H194.461V8.43201H192.285ZM186.173 13.008H190.909C191.949 13.008 192.605 12.512 192.605 11.744C192.605 10.976 191.949 10.48 190.909 10.48H186.173C185.133 10.48 184.477 10.976 184.477 11.744C184.477 12.512 185.133 13.008 186.173 13.008ZM196.464 14.272V12.432H202.448V9.88801H197.664V0.73601H199.84V3.45601H207.328V0.73601H209.504V9.88801H204.72V12.432H210.704V14.272H196.464ZM199.84 8.06401H207.328V5.28001H199.84V8.06401ZM211.828 13.888V11.984C213.172 11.456 214.26 9.37601 214.26 6.60801V2.67201H211.988V0.84801H218.612V2.67201H216.452V6.60801C216.452 9.37601 217.316 11.056 218.868 11.84V13.744C217.428 13.264 216.052 12.176 215.38 10.704C214.644 12.192 213.316 13.392 211.828 13.888ZM219.892 14.416V7.42401H217.668V5.47201H219.892V0.52801H221.94V14.416H219.892ZM223.14 14.736V0.448009H225.188V14.736H223.14ZM230.999 9.23201H236.983C239.127 9.23201 240.391 10.304 240.391 11.984C240.391 13.664 239.127 14.736 236.983 14.736H230.999C228.855 14.736 227.591 13.664 227.591 11.984C227.591 10.304 228.855 9.23201 230.999 9.23201ZM226.871 8.11201V6.40001H231.895V3.96801H234.167V6.40001H241.111V8.11201H226.871ZM227.751 2.30401V0.51201H240.071V5.72801H237.895V2.30401H227.751ZM231.143 13.008H236.839C237.671 13.008 238.215 12.56 238.215 11.984C238.215 11.408 237.671 10.96 236.839 10.96H231.143C230.311 10.96 229.767 11.408 229.767 11.984C229.767 12.56 230.311 13.008 231.143 13.008ZM242.714 13.488V1.07201H247.274C250.506 1.07201 252.234 2.96001 252.234 5.76001V8.80001C252.234 11.6 250.506 13.488 247.274 13.488H242.714ZM244.89 11.728H247.274C249.034 11.728 250.058 10.64 250.058 8.88001V5.68001C250.058 3.92001 249.034 2.83201 247.274 2.83201H244.89V11.728ZM254.229 13.488V1.07201H259.317C261.397 1.07201 263.109 2.08001 263.109 4.17601C263.109 5.69601 262.405 6.57601 261.349 7.04001C262.981 7.40801 263.669 8.56001 263.669 10.208C263.669 12.4 261.957 13.488 259.333 13.488H254.229ZM256.405 6.38401H258.901C260.117 6.38401 260.933 5.87201 260.933 4.62401C260.933 3.42401 260.277 2.83201 259.093 2.83201H256.405V6.38401ZM256.405 11.728H259.461C260.709 11.728 261.493 11.152 261.493 9.87201C261.493 8.70401 260.805 8.12801 259.381 8.12801H256.405V11.728Z" fill="black"/>
<path d="M114.526 13.488V1.07201H117.662L120.606 10.944L123.55 1.07201H126.686V13.488H124.574V3.84001H124.526L121.758 13.152H119.454L116.686 3.84001H116.638V13.488H114.526ZM128.933 13.488V1.07201H133.493C136.725 1.07201 138.453 2.96001 138.453 5.76001V8.80001C138.453 11.6 136.725 13.488 133.493 13.488H128.933ZM131.109 11.728H133.493C135.253 11.728 136.277 10.64 136.277 8.88001V5.68001C136.277 3.92001 135.253 2.83201 133.493 2.83201H131.109V11.728ZM140.448 13.488V1.07201H145.088C147.696 1.07201 149.408 2.43201 149.408 4.80001C149.408 6.11201 148.88 7.10401 147.984 7.74401C148.656 8.17601 149.088 8.94401 149.088 9.98401V13.488H146.912V10.272C146.912 9.15201 146.528 8.52801 145.456 8.52801H142.624V13.488H140.448ZM142.624 6.76801H144.624C145.92 6.76801 147.248 6.41601 147.248 4.80001C147.248 3.18401 145.92 2.83201 144.624 2.83201H142.624V6.76801Z" fill="#12A79D"/>
<path d="M85.7031 19.2287H86.6523L88.7969 24.467H88.876L91.0205 19.2287H91.9697V25.592H91.2227V20.7844H91.1611L89.1836 25.592H88.4805L86.5029 20.7844H86.4502V25.592H85.7031V19.2287ZM95.0835 25.592H93.106V19.2287H95.1626C97.0171 19.2287 98.1157 20.424 98.1157 22.4016C98.1157 24.3879 97.0171 25.592 95.0835 25.592ZM93.897 24.8889H95.0308C96.5952 24.8889 97.3423 23.9485 97.3423 22.4016C97.3423 20.8635 96.5952 19.9319 95.1099 19.9319H93.897V24.8889ZM99.0059 25.592V19.2287H101.168C102.662 19.2287 103.339 20.0549 103.339 21.1887C103.339 22.028 102.961 22.6916 102.152 22.9729L103.585 25.592H102.662L101.335 23.1135L101.177 23.1223H99.7969V25.592H99.0059ZM99.7969 22.4016H101.142C102.152 22.4016 102.557 21.9445 102.557 21.1887C102.557 20.424 102.152 19.9319 101.133 19.9319H99.7969V22.4016ZM106.991 19.2287V25.592H106.2V19.2287H106.991ZM108.787 22.7268V25.592H108.031V20.8195H108.76V21.5666H108.822C109.05 21.0832 109.49 20.758 110.219 20.758C111.186 20.758 111.828 21.3469 111.828 22.5598V25.592H111.072V22.6125C111.072 21.8742 110.668 21.4348 109.991 21.4348C109.296 21.4348 108.787 21.9006 108.787 22.7268ZM114.854 20.8195V21.4524H113.852V24.2209C113.852 24.8362 114.151 24.9328 114.476 24.9328C114.616 24.9328 114.81 24.924 114.924 24.9153V25.6184C114.81 25.636 114.616 25.6535 114.397 25.6535C113.764 25.6535 113.087 25.258 113.087 24.4143V21.4524H112.366V20.8195H113.087V19.677H113.852V20.8195H114.854ZM117.51 25.6887C116.131 25.6887 115.278 24.7131 115.278 23.2453C115.278 21.7776 116.139 20.758 117.44 20.758C118.442 20.758 119.497 21.3733 119.497 23.1399V23.4563H116.034C116.069 24.467 116.658 25.0207 117.51 25.0207C118.082 25.0207 118.442 24.7746 118.618 24.4758H119.426C119.198 25.1965 118.495 25.6887 117.51 25.6887ZM116.043 22.8147H118.732C118.732 22.0149 118.222 21.426 117.44 21.426C116.614 21.426 116.087 22.0764 116.043 22.8147ZM120.211 25.592V20.8195H120.941V21.549H120.993C121.169 21.0656 121.661 20.7404 122.224 20.7404C122.338 20.7404 122.531 20.7492 122.619 20.758V21.5227C122.567 21.5051 122.356 21.4699 122.162 21.4699C121.477 21.4699 120.967 21.9445 120.967 22.5862V25.592H120.211ZM124.863 27.4817C123.712 27.4817 122.929 26.9807 122.841 26.093H123.632C123.738 26.5764 124.186 26.8225 124.863 26.8225C125.68 26.8225 126.181 26.4709 126.181 25.6799V24.7131H126.12C125.962 24.9768 125.654 25.5217 124.731 25.5217C123.571 25.5217 122.701 24.6428 122.701 23.1399C122.701 21.6721 123.545 20.758 124.74 20.758C125.663 20.758 125.962 21.3205 126.137 21.5754H126.199V20.8195H126.937V25.7238C126.937 26.9543 126.023 27.4817 124.863 27.4817ZM124.837 24.8449C125.707 24.8449 126.199 24.2209 126.199 23.1662C126.199 22.1467 125.724 21.4348 124.837 21.4348C123.923 21.4348 123.466 22.2082 123.466 23.1662C123.466 24.1594 123.931 24.8449 124.837 24.8449ZM127.871 25.592V20.8195H128.601V21.549H128.654C128.829 21.0656 129.321 20.7404 129.884 20.7404C129.998 20.7404 130.192 20.7492 130.279 20.758V21.5227C130.227 21.5051 130.016 21.4699 129.822 21.4699C129.137 21.4699 128.627 21.9445 128.627 22.5862V25.592H127.871ZM130.51 24.2385C130.51 23.1399 131.477 22.8938 132.303 22.8322C132.607 22.8103 133.38 22.7707 133.595 22.7619V22.3752C133.595 21.7688 133.235 21.4172 132.514 21.4172C131.908 21.4172 131.548 21.6985 131.442 22.0588H130.651C130.748 21.2942 131.495 20.758 132.55 20.758C133.174 20.758 134.342 20.9426 134.342 22.4455V25.592H133.595V24.9416H133.56C133.402 25.2668 132.963 25.7063 132.136 25.7063C131.231 25.7063 130.51 25.1701 130.51 24.2385ZM131.266 24.2737C131.266 24.7746 131.688 25.0295 132.268 25.0295C133.121 25.0295 133.595 24.4582 133.595 23.8606V23.3772L132.391 23.4651C131.706 23.509 131.266 23.7551 131.266 24.2737ZM137.368 20.8195V21.4524H136.366V24.2209C136.366 24.8362 136.665 24.9328 136.99 24.9328C137.131 24.9328 137.324 24.924 137.439 24.9153V25.6184C137.324 25.636 137.131 25.6535 136.911 25.6535C136.279 25.6535 135.602 25.258 135.602 24.4143V21.4524H134.881V20.8195H135.602V19.677H136.366V20.8195H137.368ZM140.025 25.6887C138.645 25.6887 137.793 24.7131 137.793 23.2453C137.793 21.7776 138.654 20.758 139.955 20.758C140.957 20.758 142.011 21.3733 142.011 23.1399V23.4563H138.549C138.584 24.467 139.173 25.0207 140.025 25.0207C140.596 25.0207 140.957 24.7746 141.133 24.4758H141.941C141.713 25.1965 141.01 25.6887 140.025 25.6887ZM138.557 22.8147H141.247C141.247 22.0149 140.737 21.426 139.955 21.426C139.129 21.426 138.601 22.0764 138.557 22.8147ZM144.528 25.6887C143.341 25.6887 142.497 24.7307 142.497 23.219C142.497 21.7072 143.341 20.758 144.536 20.758C145.459 20.758 145.758 21.3205 145.916 21.5754H145.969V19.2287H146.734V25.592H145.995V24.8625H145.916C145.749 25.1262 145.442 25.6887 144.528 25.6887ZM144.633 25.0119C145.503 25.0119 145.995 24.2737 145.995 23.2014C145.995 22.1467 145.521 21.4348 144.633 21.4348C143.719 21.4348 143.262 22.2082 143.262 23.2014C143.262 24.2209 143.728 25.0119 144.633 25.0119ZM150.65 19.2287V25.592H149.859V19.2287H150.65ZM152.445 22.7268V25.592H151.689V20.8195H152.419V21.5666H152.48C152.709 21.0832 153.148 20.758 153.878 20.758C154.845 20.758 155.486 21.3469 155.486 22.5598V25.592H154.73V22.6125C154.73 21.8742 154.326 21.4348 153.649 21.4348C152.955 21.4348 152.445 21.9006 152.445 22.7268ZM158.565 20.8195V21.4524H157.51V25.592H156.745V21.4524H155.981V20.8195H156.745V20.1692C156.745 19.3957 157.264 18.9299 158.108 18.9299C158.292 18.9299 158.512 18.9563 158.67 18.9826V19.6594C158.512 19.633 158.371 19.6242 158.275 19.6242C157.747 19.6242 157.51 19.844 157.51 20.3362V20.8195H158.565ZM160.94 25.6887C159.64 25.6887 158.761 24.7131 158.761 23.2278C158.761 21.7424 159.64 20.758 160.94 20.758C162.232 20.758 163.102 21.7424 163.102 23.2278C163.102 24.7131 162.232 25.6887 160.94 25.6887ZM160.94 25.0207C161.898 25.0207 162.347 24.177 162.347 23.2278C162.347 22.2785 161.898 21.426 160.94 21.426C159.965 21.426 159.516 22.2785 159.516 23.2278C159.516 24.177 159.965 25.0207 160.94 25.0207ZM163.826 25.592V20.8195H164.555V21.549H164.608C164.784 21.0656 165.276 20.7404 165.838 20.7404C165.953 20.7404 166.146 20.7492 166.234 20.758V21.5227C166.181 21.5051 165.97 21.4699 165.777 21.4699C165.091 21.4699 164.581 21.9445 164.581 22.5862V25.592H163.826ZM166.702 25.592V20.8195H167.432V21.5666H167.493C167.695 21.0569 168.152 20.758 168.776 20.758C169.4 20.758 169.822 21.0569 170.051 21.5666H170.103C170.35 21.0744 170.851 20.758 171.536 20.758C172.389 20.758 172.995 21.2766 172.995 22.4016V25.592H172.239V22.4104C172.239 21.7072 171.791 21.4348 171.272 21.4348C170.604 21.4348 170.226 21.883 170.226 22.4895V25.592H169.462V22.3313C169.462 21.7951 169.075 21.4348 168.53 21.4348C167.959 21.4348 167.458 21.9182 167.458 22.6125V25.592H166.702ZM173.709 24.2385C173.709 23.1399 174.676 22.8938 175.502 22.8322C175.806 22.8103 176.579 22.7707 176.794 22.7619V22.3752C176.794 21.7688 176.434 21.4172 175.713 21.4172C175.107 21.4172 174.747 21.6985 174.641 22.0588H173.85C173.947 21.2942 174.694 20.758 175.748 20.758C176.372 20.758 177.541 20.9426 177.541 22.4455V25.592H176.794V24.9416H176.759C176.601 25.2668 176.162 25.7063 175.335 25.7063C174.43 25.7063 173.709 25.1701 173.709 24.2385ZM174.465 24.2737C174.465 24.7746 174.887 25.0295 175.467 25.0295C176.32 25.0295 176.794 24.4582 176.794 23.8606V23.3772L175.59 23.4651C174.905 23.509 174.465 23.7551 174.465 24.2737ZM180.567 20.8195V21.4524H179.565V24.2209C179.565 24.8362 179.864 24.9328 180.189 24.9328C180.33 24.9328 180.523 24.924 180.638 24.9153V25.6184C180.523 25.636 180.33 25.6535 180.11 25.6535C179.478 25.6535 178.801 25.258 178.801 24.4143V21.4524H178.08V20.8195H178.801V19.677H179.565V20.8195H180.567ZM181.273 25.592V20.8195H182.029V25.592H181.273ZM181.651 20.0285C181.361 20.0285 181.124 19.8088 181.124 19.5276C181.124 19.2463 181.361 19.0266 181.651 19.0266C181.941 19.0266 182.187 19.2463 182.187 19.5276C182.187 19.8088 181.941 20.0285 181.651 20.0285ZM184.914 25.6887C183.613 25.6887 182.734 24.7131 182.734 23.2278C182.734 21.7424 183.613 20.758 184.914 20.758C186.206 20.758 187.076 21.7424 187.076 23.2278C187.076 24.7131 186.206 25.6887 184.914 25.6887ZM184.914 25.0207C185.872 25.0207 186.32 24.177 186.32 23.2278C186.32 22.2785 185.872 21.426 184.914 21.426C183.938 21.426 183.49 22.2785 183.49 23.2278C183.49 24.177 183.938 25.0207 184.914 25.0207ZM188.555 22.7268V25.592H187.799V20.8195H188.529V21.5666H188.59C188.819 21.0832 189.258 20.758 189.988 20.758C190.955 20.758 191.596 21.3469 191.596 22.5598V25.592H190.84V22.6125C190.84 21.8742 190.436 21.4348 189.759 21.4348C189.065 21.4348 188.555 21.9006 188.555 22.7268ZM196.602 25.592H194.625V19.2287H196.681C198.536 19.2287 199.634 20.424 199.634 22.4016C199.634 24.3879 198.536 25.592 196.602 25.592ZM195.416 24.8889H196.549C198.114 24.8889 198.861 23.9485 198.861 22.4016C198.861 20.8635 198.114 19.9319 196.628 19.9319H195.416V24.8889ZM200.524 25.592V19.2287H202.757C204.093 19.2287 204.717 19.9758 204.717 20.9162C204.717 21.7336 204.233 22.1028 203.68 22.2522V22.3137C204.269 22.3488 204.972 22.8938 204.972 23.9045C204.972 24.8625 204.339 25.592 202.836 25.592H200.524ZM202.827 24.8889C203.82 24.8889 204.207 24.4494 204.207 23.8957C204.207 23.2453 203.689 22.7004 202.871 22.7004H201.316V24.8889H202.827ZM202.731 22.0149C203.416 22.0149 203.961 21.593 203.961 20.925C203.961 20.3713 203.592 19.9319 202.757 19.9319H201.316V22.0149H202.731Z" fill="#595757"/>
<mask id="mask0_7450_10302" style="mask-type:luminance" maskUnits="userSpaceOnUse" x="53" y="14" width="16" height="11">
<path d="M56.4506 14.0197C56.161 15.2704 55.4633 16.521 54.9104 17.5084C54.5286 18.193 53.5017 18.8249 53.0146 19.391C54.239 21.392 56.9509 22.5637 57.0694 22.6295C59.1626 23.63 61.4401 24.1434 63.8492 24.1566C63.8887 24.1303 63.915 24.1171 63.9545 24.0908C67.7065 21.7869 68.7202 19.6411 68.8913 18.2193C68.7465 18.917 68.3384 19.6016 67.7065 20.0755C67.3905 20.3125 66.9956 20.4705 66.5612 20.5889C65.7186 20.8127 64.7839 20.8522 64.3363 20.8786C64.2178 20.8786 64.1125 20.8786 64.0072 20.8786C63.1647 20.8786 62.3221 20.7469 61.5059 20.4836C60.558 20.1677 59.3469 19.5094 58.2147 18.1666C57.1089 16.8633 56.6744 14.757 56.556 14.0329H56.4638L56.4506 14.0197Z" fill="white"/>
</mask>
<g mask="url(#mask0_7450_10302)">
<path d="M57.4371 6.90603L48.4629 21.3237L64.4453 31.2719L73.4195 16.8542L57.4371 6.90603Z" fill="url(#paint0_linear_7450_10302)"/>
</g>
<path d="M1.63243 4.51464C1.75091 3.07968 4.31803 1.94751 6.63502 1.94751C8.54391 1.94751 11.0847 2.65841 11.9536 4.0802C14.2047 7.80582 15.8503 12.3608 17.1931 15.0201C17.2326 14.1907 17.2721 14.2039 17.3248 13.5325L18.3121 1.90802H23.8413L22.1826 21.484C22.1299 22.1159 21.8403 22.6688 21.3532 23.1164C20.8529 23.564 20.2474 23.801 19.576 23.801H16.785C16.785 23.801 8.78088 7.14758 8.3596 6.42352C8.16213 6.18656 7.38541 6.17339 7.35909 6.46302C7.2801 7.45037 6.24008 19.9569 6.00312 22.761C5.97679 23.1032 5.73982 23.8273 5.04209 23.8273H0L1.63243 4.51464Z" fill="#0052A4"/>
<path d="M25.6709 23.8272L27.5271 1.9343H33.3723L31.7135 21.5103C31.6609 22.1422 31.3844 22.6951 30.8841 23.1427C30.3839 23.5903 29.7783 23.8272 29.1069 23.8272H25.6841H25.6709Z" fill="#0052A4"/>
<path d="M73.0777 13.6246C71.9455 12.6241 70.0893 11.7552 68.0619 11.0311C66.7191 10.5704 65.4948 10.0306 64.8234 9.46452C64.2047 8.9511 63.9282 8.2797 64.0072 7.45032C64.0335 7.14753 64.1257 6.83157 64.2705 6.51562C64.7971 5.38345 66.7323 5.08067 67.8118 5.08067C69.1941 5.08067 70.9055 5.30447 72.8671 6.13384C73.1435 6.25233 74.3284 6.38397 74.8681 5.15965C75.4474 3.85634 76.0003 2.3424 76.0003 2.3424C76.0003 2.3424 72.2088 1.59201 68.1673 1.59201C66.7981 1.59201 64.3495 1.76315 63.2963 2.05278C60.0446 2.94798 58.4912 4.59357 58.2411 7.51614C58.1094 9.05641 58.9519 10.623 60.2289 11.6762C61.4401 12.6767 63.0857 13.5193 65.1262 14.1643C66.3769 14.5988 67.6275 15.1649 68.2199 15.7441C68.8782 16.3892 69.0756 17.3239 68.8913 18.2059C68.7202 19.6409 67.6012 21.8394 63.8492 24.1432H63.8756C65.6001 24.1432 67.3642 23.9457 68.4832 23.6298C69.7075 23.2875 70.8924 22.8136 71.7349 22.208C72.5906 21.6156 73.4068 20.9178 73.8676 20.1148C74.3284 19.3249 74.6048 18.4692 74.6706 17.6003C74.8023 16.0206 74.2757 14.6778 73.0777 13.6246Z" fill="#0052A4"/>
<mask id="mask1_7450_10302" style="mask-type:luminance" maskUnits="userSpaceOnUse" x="40" y="2" width="17" height="22">
<path d="M51.3294 12.1106C51.0134 14.4671 50.1709 16.9026 48.3541 18.7062C46.8665 20.1938 44.4837 20.6809 41.7059 20.6809C41.5348 20.6809 41.1662 20.6809 40.9819 20.6677C40.9819 20.6677 40.8897 21.0627 40.9029 21.5892C40.9556 23.6298 42.1272 23.8273 42.1272 23.8273C44.1414 23.8273 45.9845 23.7483 47.7222 23.2875C53.0013 21.8789 56.5163 17.5872 56.9639 12.3608C57.2667 8.83262 54.6074 5.8179 52.6327 4.31712C51.9349 3.8037 50.9871 3.19812 50.1314 2.85583C51.1451 4.4356 51.8428 9.35921 51.3294 12.1106Z" fill="white"/>
</mask>
<g mask="url(#mask1_7450_10302)">
<path d="M42.6216 -2.18335L34.431 21.6038L55.5295 28.8686L63.7201 5.08145L42.6216 -2.18335Z" fill="url(#paint1_linear_7450_10302)"/>
</g>
<path d="M43.7859 1.78961C43.7859 1.78961 43.6806 1.78961 43.628 1.78961C40.8107 1.78961 39.0335 1.96075 38.0066 2.11873C36.8745 2.28987 36.7955 2.79013 36.7297 3.30356C36.7297 3.30356 35.3474 19.2197 35.2157 21.3261C35.0841 23.4324 37.6512 23.8274 37.6512 23.8274H42.6669C42.5353 23.8274 42.3905 23.8274 42.2457 23.8274C42.2457 23.8274 41.074 23.6299 41.0214 21.5894C41.0214 21.1813 41.074 20.839 41.1003 20.7205L42.4037 5.3046C42.4695 5.22561 42.9961 5.14662 43.47 5.14662C45.2736 5.14662 47.1298 5.22561 48.5911 6.08132C46.8797 3.97496 44.7206 2.42152 43.7859 1.80278" fill="#0052A4"/>
<mask id="mask2_7450_10302" style="mask-type:luminance" maskUnits="userSpaceOnUse" x="43" y="1" width="9" height="12">
<path d="M43.7856 1.78975C44.7203 2.40849 46.8793 3.96193 48.5908 6.06828C48.9725 6.29208 49.328 6.55538 49.6439 6.89766C51.3817 8.72756 51.3027 12.2294 51.3159 12.0977C51.8293 9.3463 51.25 4.48852 50.2363 2.89558C49.6966 2.67178 49.1173 2.48748 48.5118 2.34266C47.0241 1.97405 45.4312 1.78975 43.7725 1.77658L43.7856 1.78975Z" fill="white"/>
</mask>
<g mask="url(#mask2_7450_10302)">
<path d="M51.842 1.78976H43.7852V12.2294H51.842V1.78976Z" fill="url(#paint2_linear_7450_10302)"/>
</g>
<defs>
<linearGradient id="paint0_linear_7450_10302" x1="66.4756" y1="22.7106" x2="56.3273" y2="16.3939" gradientUnits="userSpaceOnUse">
<stop stop-color="#007061"/>
<stop offset="0.26" stop-color="#258957"/>
<stop offset="0.59" stop-color="#4CA34C"/>
<stop offset="0.84" stop-color="#65B346"/>
<stop offset="1" stop-color="#6EBA44"/>
</linearGradient>
<linearGradient id="paint1_linear_7450_10302" x1="52.2872" y1="4.8169" x2="48.1683" y2="16.7789" gradientUnits="userSpaceOnUse">
<stop stop-color="#2EA7E0"/>
<stop offset="0.19" stop-color="#299ED9"/>
<stop offset="0.5" stop-color="#1B85C8"/>
<stop offset="0.89" stop-color="#065EAC"/>
<stop offset="1" stop-color="#0052A4"/>
</linearGradient>
<linearGradient id="paint2_linear_7450_10302" x1="42.9284" y1="6.34423" x2="50.6693" y2="6.34423" gradientUnits="userSpaceOnUse">
<stop stop-color="#F6AC19"/>
<stop offset="0.18" stop-color="#F3A316"/>
<stop offset="0.48" stop-color="#EB8A10"/>
<stop offset="0.85" stop-color="#DF6306"/>
<stop offset="1" stop-color="#DA5102"/>
</linearGradient>
</defs>
</svg>
