<svg width="21" height="20" viewBox="0 0 21 20" fill="none" xmlns="http://www.w3.org/2000/svg">
<path fill-rule="evenodd" clip-rule="evenodd" d="M10.4012 2C5.98297 2 2.40125 5.58172 2.40125 10C2.40125 11.2091 2.66946 12.3555 3.14963 13.383L2.48614 16.5702C2.41273 16.9228 2.72494 17.235 3.07754 17.1616L5.85485 16.5835C7.1459 17.4767 8.71246 18 10.4012 18C14.8195 18 18.4012 14.4183 18.4012 10C18.4012 5.58172 14.8195 2 10.4012 2Z" fill="#246BEB"/>
<path d="M9.46863 12.2347V12.1239C9.47147 11.6097 9.51977 11.2007 9.61352 10.8967C9.71011 10.5927 9.84647 10.3484 10.0226 10.1637C10.1987 9.97622 10.4132 9.80434 10.6661 9.64809C10.8394 9.54014 10.9942 9.42224 11.1306 9.2944C11.2698 9.16372 11.3791 9.01883 11.4587 8.85974C11.5382 8.69781 11.578 8.51741 11.578 8.31855C11.578 8.09412 11.5255 7.89951 11.4203 7.73474C11.3152 7.56997 11.1732 7.44213 10.9942 7.35122C10.8181 7.26031 10.6206 7.21485 10.4019 7.21485C10.2002 7.21485 10.0084 7.25889 9.82659 7.34696C9.64761 7.43218 9.49846 7.56287 9.37915 7.739C9.26267 7.9123 9.19733 8.13247 9.18312 8.39951H7.66608C7.68028 7.85974 7.81096 7.40804 8.05812 7.0444C8.30812 6.68076 8.63767 6.40804 9.04676 6.22622C9.45869 6.0444 9.91324 5.95349 10.4104 5.95349C10.953 5.95349 11.4303 6.04866 11.8422 6.239C12.257 6.42934 12.5794 6.70065 12.8095 7.05292C13.0425 7.40236 13.159 7.81713 13.159 8.29724C13.159 8.6211 13.1064 8.91088 13.0013 9.16656C12.899 9.42224 12.7527 9.64951 12.5624 9.84838C12.372 10.0472 12.1462 10.2248 11.8848 10.381C11.6547 10.5231 11.4658 10.6708 11.3181 10.8242C11.1732 10.9776 11.0652 11.158 10.9942 11.3654C10.926 11.57 10.8905 11.8228 10.8877 12.1239V12.2347H9.46863ZM10.2101 14.8938C9.95443 14.8938 9.73426 14.8029 9.5496 14.6211C9.36494 14.4393 9.27261 14.2177 9.27261 13.9563C9.27261 13.7007 9.36494 13.4819 9.5496 13.3001C9.73426 13.1183 9.95443 13.0274 10.2101 13.0274C10.463 13.0274 10.6817 13.1183 10.8664 13.3001C11.0539 13.4819 11.1476 13.7007 11.1476 13.9563C11.1476 14.1296 11.1036 14.2873 11.0155 14.4293C10.9303 14.5714 10.8166 14.685 10.6746 14.7703C10.5354 14.8526 10.3806 14.8938 10.2101 14.8938Z" fill="white"/>
</svg>
