<svg width="21" height="20" viewBox="0 0 21 20" fill="none" xmlns="http://www.w3.org/2000/svg">
<path d="M5.68708 17C5.35945 17 5.06822 16.8987 4.81339 16.6961C4.55857 16.4934 4.38261 16.2325 4.28554 15.9132L2.42895 9.09737C2.36827 8.86404 2.40771 8.64912 2.54726 8.45263C2.68681 8.25614 2.87793 8.15789 3.12062 8.15789H6.57897L9.7825 3.33158C9.84318 3.23333 9.92812 3.15351 10.0373 3.09211C10.1465 3.0307 10.2618 3 10.3832 3C10.5045 3 10.6198 3.0307 10.729 3.09211C10.8382 3.15351 10.9232 3.23333 10.9838 3.33158L14.1874 8.15789H17.6821C17.9248 8.15789 18.1159 8.25614 18.2555 8.45263C18.395 8.64912 18.4345 8.86404 18.3738 9.09737L16.5172 15.9132C16.4201 16.2325 16.2442 16.4934 15.9893 16.6961C15.7345 16.8987 15.4433 17 15.1157 17H5.68708ZM5.66888 15.5263H15.1339L16.7356 9.63158H4.06711L5.66888 15.5263ZM8.34456 8.15789H12.44L10.3832 5.06316L8.34456 8.15789Z" fill="#2D2D2D"/>
</svg>
