<svg width="21" height="20" viewBox="0 0 21 20" fill="none" xmlns="http://www.w3.org/2000/svg">
<path d="M3.10137 7.7H17.7014V16C17.7014 16.718 17.1193 17.3 16.4014 17.3H4.40137C3.6834 17.3 3.10137 16.718 3.10137 16V7.7Z" stroke="#2D2D2D" stroke-width="1.4"/>
<rect x="6.10156" y="11.6" width="1.8" height="1.8" rx="0.9" fill="#2D2D2D"/>
<rect x="9.50159" y="11.6" width="1.8" height="1.8" rx="0.9" fill="#2D2D2D"/>
<rect x="12.9016" y="11.6" width="1.8" height="1.8" rx="0.9" fill="#2D2D2D"/>
<rect x="6.75137" y="2.35" width="0.7" height="1.3" rx="0.35" stroke="#2D2D2D" stroke-width="0.7"/>
<rect x="13.3513" y="2.35" width="0.7" height="1.3" rx="0.35" stroke="#2D2D2D" stroke-width="0.7"/>
<mask id="path-7-inside-1_0_120" fill="white">
<path d="M2.40137 5C2.40137 3.89543 3.2968 3 4.40137 3H16.4014C17.5059 3 18.4014 3.89543 18.4014 5V8H2.40137V5Z"/>
</mask>
<path d="M1.00137 5C1.00137 3.12223 2.5236 1.6 4.40137 1.6H16.4014C18.2791 1.6 19.8014 3.12223 19.8014 5H17.0014C17.0014 4.66863 16.7327 4.4 16.4014 4.4H4.40137C4.07 4.4 3.80137 4.66863 3.80137 5H1.00137ZM18.4014 8H2.40137H18.4014ZM1.00137 8V5C1.00137 3.12223 2.5236 1.6 4.40137 1.6V4.4C4.07 4.4 3.80137 4.66863 3.80137 5V8H1.00137ZM16.4014 1.6C18.2791 1.6 19.8014 3.12223 19.8014 5V8H17.0014V5C17.0014 4.66863 16.7327 4.4 16.4014 4.4V1.6Z" fill="#2D2D2D" mask="url(#path-7-inside-1_0_120)"/>
</svg>
