<svg width="21" height="20" viewBox="0 0 21 20" fill="none" xmlns="http://www.w3.org/2000/svg">
<path d="M9.78821 4.91609L10.4014 6.02984L11.0146 4.91609C11.3279 4.34709 11.7847 3.87172 12.3386 3.53764C12.8865 3.20715 13.5104 3.02639 14.1485 3.0128C15.1809 3.06338 16.1534 3.51984 16.8556 4.28547C17.5626 5.05635 17.938 6.07796 17.8986 7.1272L17.8981 7.14032V7.15345C17.8981 8.13614 17.4992 9.21536 16.8258 10.3225C16.1567 11.4224 15.2504 12.495 14.3161 13.4502C12.4862 15.321 10.6145 16.6761 10.4014 16.8284C10.1798 16.6692 8.31242 15.3161 6.4867 13.4496C5.55243 12.4945 4.64608 11.4221 3.97704 10.3223C3.30363 9.21526 2.90472 8.13613 2.90472 7.15345V7.14032L2.90423 7.1272C2.86485 6.07796 3.24021 5.05636 3.94723 4.28547C4.64942 3.51984 5.6219 3.06338 6.65435 3.0128C7.29243 3.02639 7.91629 3.20715 8.46422 3.53764C9.0181 3.87172 9.47493 4.34709 9.78821 4.91609Z" stroke="#2D2D2D" stroke-width="1.4"/>
</svg>
