<svg width="21" height="20" viewBox="0 0 21 20" fill="none" xmlns="http://www.w3.org/2000/svg">
<path d="M6.40137 13C6.97106 13 7.52561 13.0656 8.065 13.1969C8.6044 13.3281 9.14076 13.525 9.67409 13.7875V6.4C9.17712 6.1 8.64985 5.875 8.09228 5.725C7.5347 5.575 6.97106 5.5 6.40137 5.5C5.965 5.5 5.53167 5.54375 5.10137 5.63125C4.67106 5.71875 4.25591 5.85 3.85591 6.025V13.45C4.28016 13.3 4.70137 13.1875 5.11955 13.1125C5.53773 13.0375 5.965 13 6.40137 13ZM11.1286 13.7875C11.662 13.525 12.1983 13.3281 12.7377 13.1969C13.2771 13.0656 13.8317 13 14.4014 13C14.8377 13 15.265 13.0375 15.6832 13.1125C16.1014 13.1875 16.5226 13.3 16.9468 13.45V6.025C16.5468 5.85 16.1317 5.71875 15.7014 5.63125C15.2711 5.54375 14.8377 5.5 14.4014 5.5C13.8317 5.5 13.268 5.575 12.7105 5.725C12.1529 5.875 11.6256 6.1 11.1286 6.4V13.7875ZM10.4014 16C9.81955 15.525 9.18925 15.1562 8.51046 14.8938C7.83167 14.6313 7.12864 14.5 6.40137 14.5C5.89228 14.5 5.39228 14.5688 4.90137 14.7063C4.41046 14.8438 3.94076 15.0375 3.49228 15.2875C3.23773 15.425 2.99228 15.4188 2.75591 15.2688C2.51955 15.1188 2.40137 14.9 2.40137 14.6125V5.575C2.40137 5.4375 2.4347 5.30625 2.50137 5.18125C2.56803 5.05625 2.66803 4.9625 2.80137 4.9C3.35894 4.6 3.94076 4.375 4.54682 4.225C5.15288 4.075 5.77106 4 6.40137 4C7.1044 4 7.79228 4.09375 8.465 4.28125C9.13773 4.46875 9.78319 4.75 10.4014 5.125C11.0195 4.75 11.665 4.46875 12.3377 4.28125C13.0105 4.09375 13.6983 4 14.4014 4C15.0317 4 15.6499 4.075 16.2559 4.225C16.862 4.375 17.4438 4.6 18.0014 4.9C18.1347 4.9625 18.2347 5.05625 18.3014 5.18125C18.368 5.30625 18.4014 5.4375 18.4014 5.575V14.6125C18.4014 14.9 18.2832 15.1188 18.0468 15.2688C17.8105 15.4188 17.565 15.425 17.3105 15.2875C16.862 15.0375 16.3923 14.8438 15.9014 14.7063C15.4105 14.5688 14.9105 14.5 14.4014 14.5C13.6741 14.5 12.9711 14.6313 12.2923 14.8938C11.6135 15.1562 10.9832 15.525 10.4014 16Z" fill="#2D2D2D"/>
</svg>
