<svg width="21" height="20" viewBox="0 0 21 20" fill="none" xmlns="http://www.w3.org/2000/svg">
<path d="M4.10137 6.7H16.7014V16C16.7014 16.718 16.1193 17.3 15.4014 17.3H5.40137C4.6834 17.3 4.10137 16.718 4.10137 16V6.7Z" stroke="#2D2D2D" stroke-width="1.4"/>
<mask id="path-2-inside-1_0_113" fill="white">
<path d="M5.40137 5C5.40137 3.34315 6.74451 2 8.40137 2H12.4014C14.0582 2 15.4014 3.34315 15.4014 5V7H5.40137V5Z"/>
</mask>
<path d="M4.00137 5C4.00137 2.56995 5.97131 0.6 8.40137 0.6H12.4014C14.8314 0.6 16.8014 2.56995 16.8014 5H14.0014C14.0014 4.11634 13.285 3.4 12.4014 3.4H8.40137C7.51771 3.4 6.80137 4.11634 6.80137 5H4.00137ZM15.4014 7H5.40137H15.4014ZM4.00137 7V5C4.00137 2.56995 5.97131 0.6 8.40137 0.6V3.4C7.51771 3.4 6.80137 4.11634 6.80137 5V7H4.00137ZM12.4014 0.6C14.8314 0.6 16.8014 2.56995 16.8014 5V7H14.0014V5C14.0014 4.11634 13.285 3.4 12.4014 3.4V0.6Z" fill="#2D2D2D" mask="url(#path-2-inside-1_0_113)"/>
<line x1="10.3826" y1="10" x2="10.3826" y2="12" stroke="#2D2D2D" stroke-width="1.4"/>
</svg>
