<svg width="21" height="20" viewBox="0 0 21 20" fill="none" xmlns="http://www.w3.org/2000/svg">
<mask id="path-1-inside-1_0_249" fill="white">
<path d="M10.4014 2H17.4014C17.9537 2 18.4014 2.44772 18.4014 3V17C18.4014 17.5523 17.9537 18 17.4014 18H10.4014V2Z"/>
</mask>
<path d="M10.4014 0.6H17.4014C18.7269 0.6 19.8014 1.67452 19.8014 3L17.0014 3.4H10.4014V0.6ZM19.8014 17C19.8014 18.3255 18.7269 19.4 17.4014 19.4H10.4014V16.6H17.0014L19.8014 17ZM10.4014 18V2V18ZM17.4014 0.6C18.7269 0.6 19.8014 1.67452 19.8014 3V17C19.8014 18.3255 18.7269 19.4 17.4014 19.4L17.0014 16.6V3.4L17.4014 0.6Z" fill="#2D2D2D" mask="url(#path-1-inside-1_0_249)"/>
<path d="M2.40137 10H14.4014" stroke="#2D2D2D" stroke-width="1.4"/>
<path d="M10.9014 6.5L14.4014 10L10.9014 13.5" stroke="#2D2D2D" stroke-width="1.2"/>
</svg>
