<svg width="21" height="20" viewBox="0 0 21 20" fill="none" xmlns="http://www.w3.org/2000/svg">
<mask id="path-1-inside-1_0_256" fill="white">
<path d="M10.4014 18H3.40137C2.84908 18 2.40137 17.5523 2.40137 17L2.40137 3C2.40137 2.44771 2.84908 2 3.40137 2H10.4014L10.4014 18Z"/>
</mask>
<path d="M10.4014 19.4H3.40137C2.07588 19.4 1.00137 18.3255 1.00137 17L3.80137 16.6H10.4014V19.4ZM1.00137 3C1.00137 1.67452 2.07588 0.6 3.40137 0.6H10.4014V3.4H3.80137L1.00137 3ZM10.4014 2L10.4014 18L10.4014 2ZM3.40137 19.4C2.07588 19.4 1.00137 18.3255 1.00137 17L1.00137 3C1.00137 1.67452 2.07588 0.6 3.40137 0.6L3.80137 3.4L3.80137 16.6L3.40137 19.4Z" fill="#2D2D2D" mask="url(#path-1-inside-1_0_256)"/>
<path d="M5.40137 10H17.4014" stroke="#2D2D2D" stroke-width="1.4"/>
<path d="M13.9014 6.5L17.4014 10L13.9014 13.5" stroke="#2D2D2D" stroke-width="1.2"/>
</svg>
