<svg width="21" height="20" viewBox="0 0 21 20" fill="none" xmlns="http://www.w3.org/2000/svg">
<mask id="path-1-inside-1_0_296" fill="white">
<path fill-rule="evenodd" clip-rule="evenodd" d="M4.40137 2C3.84908 2 3.40137 2.44772 3.40137 3V8.39442V17.0462C3.40137 17.8616 4.32478 18.3342 4.98619 17.8574L10.4014 13.9531L15.8165 17.8574C16.478 18.3342 17.4014 17.8616 17.4014 17.0462V8.39442V3C17.4014 2.44772 16.9537 2 16.4014 2H4.40137Z"/>
</mask>
<path d="M4.98619 17.8574L4.16743 16.7217L4.16743 16.7218L4.98619 17.8574ZM10.4014 13.9531L11.2201 12.8175L10.4014 12.2272L9.58261 12.8175L10.4014 13.9531ZM15.8165 17.8574L16.6353 16.7218L16.6353 16.7217L15.8165 17.8574ZM4.80137 3C4.80137 3.22091 4.62228 3.4 4.40137 3.4V0.6C3.07588 0.6 2.00137 1.67452 2.00137 3H4.80137ZM2.00137 3V8.39442H4.80137V3H2.00137ZM4.80137 17.0462V8.39442H2.00137V17.0462H4.80137ZM4.16743 16.7218C4.43201 16.531 4.80137 16.7201 4.80137 17.0462H2.00137C2.00137 19.0032 4.21756 20.1375 5.80496 18.993L4.16743 16.7218ZM9.58261 12.8175L4.16743 16.7217L5.80496 18.993L11.2201 15.0887L9.58261 12.8175ZM9.58261 15.0887L14.9978 18.993L16.6353 16.7217L11.2201 12.8175L9.58261 15.0887ZM14.9978 18.993C16.5852 20.1375 18.8014 19.0031 18.8014 17.0462H16.0014C16.0014 16.7201 16.3707 16.531 16.6353 16.7218L14.9978 18.993ZM18.8014 17.0462V8.39442H16.0014V17.0462H18.8014ZM18.8014 8.39442V3H16.0014V8.39442H18.8014ZM16.4014 3.4C16.1805 3.4 16.0014 3.22091 16.0014 3H18.8014C18.8014 1.67452 17.7268 0.6 16.4014 0.6V3.4ZM16.4014 0.6H4.40137V3.4H16.4014V0.6Z" fill="#2D2D2D" mask="url(#path-1-inside-1_0_296)"/>
</svg>
