<svg width="21" height="20" viewBox="0 0 21 20" fill="none" xmlns="http://www.w3.org/2000/svg">
<path d="M13.0339 9.99935C13.0339 11.4537 11.855 12.6327 10.4006 12.6327C8.94619 12.6327 7.76726 11.4537 7.76726 9.99935C7.76726 8.54495 8.94619 7.36602 10.4006 7.36602C11.855 7.36602 13.0339 8.54495 13.0339 9.99935Z" stroke="#2D2D2D" stroke-width="1.4" stroke-linecap="round" stroke-linejoin="round"/>
<path d="M13.6838 15.521L13.6839 15.5211C13.6839 15.5211 13.6839 15.5211 13.6839 15.5211C13.9607 15.7694 14.3833 15.7579 14.6462 15.495L15.8962 14.245C16.1538 13.9874 16.1708 13.5752 15.9352 13.2973L15.2839 12.529L15.6734 11.5885L16.8274 11.2882C17.1359 11.2079 17.3512 10.9295 17.3512 10.6108L17.3512 9.37504C17.3513 9.05487 17.1341 8.7755 16.8238 8.69659L15.6778 8.40517L15.2891 7.46675L15.9358 6.70197C16.1708 6.42404 16.1536 6.01239 15.8962 5.75503L14.6462 4.50503C14.3879 4.24666 13.9742 4.23047 13.6965 4.46785L12.9372 5.11671L11.9634 4.71623L11.6628 3.57215C11.582 3.26449 11.3039 3.05 10.9858 3.05H9.76437C9.44638 3.05 9.16835 3.26433 9.08742 3.57185L8.78014 4.73946L7.85165 5.13086L7.11646 4.47696C6.83946 4.23058 6.41841 4.24289 6.15627 4.50503L4.90627 5.75503C4.65263 6.00867 4.63176 6.413 4.85795 6.6914L5.50513 7.48797L5.12214 8.4296L3.99215 8.69332C3.67536 8.76725 3.45125 9.04969 3.45125 9.375V10.625C3.45125 10.9406 3.66243 11.2172 3.96689 11.3003L5.13915 11.6203L5.53175 12.5517L4.87873 13.2842C4.63184 13.5611 4.64392 13.9826 4.90627 14.245L6.15627 15.495C6.4102 15.7489 6.81509 15.7695 7.09346 15.5426L7.88985 14.8936L8.80701 15.2709L9.09755 16.4214C9.17605 16.7322 9.45566 16.95 9.77625 16.95H11.0262C11.3467 16.95 11.6262 16.7325 11.7048 16.4219L11.9964 15.2706L12.946 14.8773C13.0399 14.9564 13.1448 15.0466 13.2499 15.1381C13.3668 15.2399 13.4756 15.3358 13.5551 15.4064L13.6496 15.4905L13.6752 15.5134L13.6818 15.5193L13.6834 15.5207L13.6838 15.521Z" stroke="#2D2D2D" stroke-width="1.4" stroke-linecap="round" stroke-linejoin="round"/>
</svg>
