<svg width="21" height="20" viewBox="0 0 21 20" fill="none" xmlns="http://www.w3.org/2000/svg">
<path fill-rule="evenodd" clip-rule="evenodd" d="M7.60136 5.5C7.60136 5.1134 7.28795 4.8 6.90136 4.8C6.51476 4.8 6.20136 5.1134 6.20136 5.5L6.20135 14.5C6.20135 14.8866 6.51476 15.2 6.90135 15.2C7.28795 15.2 7.60135 14.8866 7.60135 14.5L7.60136 5.5ZM14.6014 5.5C14.6014 5.1134 14.288 4.8 13.9014 4.8C13.5148 4.8 13.2014 5.1134 13.2014 5.5L13.2014 14.5C13.2014 14.8866 13.5148 15.2 13.9014 15.2C14.288 15.2 14.6014 14.8866 14.6014 14.5V5.5Z" fill="#2D2D2D"/>
</svg>
