<svg width="21" height="20" viewBox="0 0 21 20" fill="none" xmlns="http://www.w3.org/2000/svg">
<path fill-rule="evenodd" clip-rule="evenodd" d="M13.6291 14.6419L12.509 13.5218C11.8429 13.6975 11.1345 13.8 10.4014 13.8C8.49597 13.8 6.75719 13.1078 5.49589 12.2365C4.86595 11.8014 4.37303 11.3338 4.04508 10.9085C3.69988 10.4608 3.60135 10.1445 3.60135 9.99999C3.60135 9.85546 3.69988 9.53917 4.04508 9.09149C4.37303 8.66619 4.86595 8.19857 5.49589 7.76344C5.73791 7.59627 5.9975 7.43569 6.27248 7.28533L5.24687 6.25971C5.057 6.37346 4.87459 6.49108 4.70022 6.61153C3.97293 7.1139 3.3675 7.67754 2.9364 8.23661C2.52256 8.7733 2.20135 9.39451 2.20135 9.99999C2.20135 10.6055 2.52256 11.2267 2.9364 11.7634C3.3675 12.3224 3.97293 12.8861 4.70022 13.3884C6.15339 14.3922 8.1646 15.2 10.4014 15.2C11.552 15.2 12.643 14.9862 13.6291 14.6419ZM7.17362 5.35804C8.15966 5.01377 9.25066 4.79999 10.4014 4.79999C12.6381 4.79999 14.6493 5.60776 16.1025 6.61153C16.8298 7.1139 17.4352 7.67754 17.8663 8.23661C18.2801 8.7733 18.6014 9.39451 18.6014 9.99999C18.6014 10.6055 18.2801 11.2267 17.8663 11.7634C17.4352 12.3224 16.8298 12.8861 16.1025 13.3884C15.9281 13.5089 15.7457 13.6265 15.5558 13.7403L14.5302 12.7146C14.8052 12.5643 15.0648 12.4037 15.3068 12.2365C15.9368 11.8014 16.4297 11.3338 16.7576 10.9085C17.1028 10.4608 17.2014 10.1445 17.2014 9.99999C17.2014 9.85546 17.1028 9.53917 16.7576 9.09149C16.4297 8.66619 15.9368 8.19857 15.3068 7.76344C14.0455 6.89221 12.3067 6.19999 10.4014 6.19999C9.66826 6.19999 8.95982 6.30246 8.29375 6.47817L7.17362 5.35804ZM7.33152 8.34437C7.05014 8.83183 6.88885 9.3953 6.88885 9.99999C6.88885 11.9044 8.48866 13.4 10.4014 13.4C10.9776 13.4 11.5254 13.2642 12.0096 13.0225L10.9256 11.9385C10.7588 11.9786 10.5833 12 10.4014 12C9.20745 12 8.28885 11.0779 8.28885 9.99999C8.28885 9.7922 8.32299 9.59021 8.38665 9.39949L7.33152 8.34437ZM9.87708 8.0615L8.79307 6.97749C9.27731 6.73572 9.82513 6.59999 10.4014 6.59999C12.314 6.59999 13.9139 8.09556 13.9139 9.99999C13.9139 10.6047 13.7526 11.1681 13.4712 11.6556L12.4161 10.6005C12.4797 10.4098 12.5139 10.2078 12.5139 9.99999C12.5139 8.92208 11.5953 7.99999 10.4014 7.99999C10.2194 7.99999 10.0439 8.02139 9.87708 8.0615Z" fill="#2D2D2D"/>
<path d="M4.40137 4L16.4014 16" stroke="#2D2D2D" stroke-width="1.4"/>
</svg>
